<svg width="23" height="23" viewBox="0 0 23 23" fill="none" xmlns="http://www.w3.org/2000/svg">
<path d="M11.5 17.197C11.913 17.197 12.2592 17.0574 12.5384 16.7781C12.8177 16.4986 12.9574 16.1525 12.9574 15.7396V11.8975C12.9574 11.4845 12.8177 11.1383 12.5384 10.859C12.2592 10.5797 11.913 10.4401 11.5 10.4401C11.0872 10.4401 10.741 10.5797 10.4616 10.859C10.1823 11.1383 10.0426 11.4845 10.0426 11.8975V15.7396C10.0426 16.1525 10.1823 16.4986 10.4616 16.7781C10.741 17.0574 11.0872 17.197 11.5 17.197ZM11.5 8.85023C11.9505 8.85023 12.3281 8.69787 12.6328 8.39314C12.9375 8.08842 13.0899 7.71083 13.0899 7.26037C13.0899 6.80991 12.9375 6.43232 12.6328 6.12759C12.3281 5.82287 11.9505 5.67051 11.5 5.67051C11.0495 5.67051 10.6719 5.82287 10.3672 6.12759C10.0625 6.43232 9.91014 6.80991 9.91014 7.26037C9.91014 7.71083 10.0625 8.08842 10.3672 8.39314C10.6719 8.69787 11.0495 8.85023 11.5 8.85023ZM11.5 23C9.89247 23 8.39103 22.699 6.99566 22.097C5.60047 21.4948 4.38678 20.6776 3.35461 19.6454C2.32243 18.6132 1.50525 17.3995 0.903042 16.0043C0.301014 14.609 0 13.1075 0 11.5C0 9.89247 0.301014 8.39103 0.903042 6.99566C1.50525 5.60047 2.32243 4.38678 3.35461 3.35461C4.38678 2.32243 5.60047 1.50525 6.99566 0.903042C8.39103 0.301014 9.89247 0 11.5 0C13.1075 0 14.609 0.301014 16.0043 0.903042C17.3995 1.50525 18.6132 2.32243 19.6454 3.35461C20.6776 4.38678 21.4948 5.60047 22.097 6.99566C22.699 8.39103 23 9.89247 23 11.5C23 13.1075 22.699 14.609 22.097 16.0043C21.4948 17.3995 20.6776 18.6132 19.6454 19.6454C18.6132 20.6776 17.3995 21.4948 16.0043 22.097C14.609 22.699 13.1075 23 11.5 23Z" fill="#A10000"/>
</svg>
