<svg width="23" height="23" viewBox="0 0 23 23" fill="none" xmlns="http://www.w3.org/2000/svg">
<path d="M15.6724 17.2832C15.3974 18.8012 15.0453 20.298 14.5503 21.75C14.5284 21.8376 14.529 21.9036 14.5181 21.9912C13.6601 22.2002 12.7575 22.333 11.8335 22.333C10.8985 22.333 10.0072 22.2002 9.13818 21.9912C9.12729 21.9036 9.13852 21.8376 9.1167 21.75C8.63269 20.287 8.26963 18.8012 7.99463 17.2832C9.2706 17.4262 10.5465 17.5254 11.8335 17.5254C13.1204 17.5254 14.4074 17.4262 15.6724 17.2832ZM21.646 16.1094C21.635 16.1534 21.6675 16.1975 21.6675 16.2305C20.5785 18.4194 18.7632 20.1908 16.5522 21.2578C16.9703 19.8608 17.3222 18.4522 17.5532 17.0332C18.9392 16.8022 20.304 16.5054 21.646 16.1094ZM2.021 16.1094C3.36302 16.5054 4.74949 16.8022 6.12451 17.0332C6.36652 18.4192 6.65233 19.7947 7.04834 21.1367C7.01535 21.1368 6.97094 21.1582 6.93799 21.1582C4.8043 20.1022 3.06647 18.3534 1.99951 16.2197C1.99951 16.1868 2.02095 16.1424 2.021 16.1094ZM7.69385 7.19238C10.445 6.84529 13.222 6.84527 15.9731 7.19238C16.3203 9.94354 16.3202 12.7205 15.9731 15.4717C13.2219 15.8188 10.4451 15.8188 7.69385 15.4717C7.34676 12.7205 7.34674 9.94355 7.69385 7.19238ZM5.88232 7.49316C5.60732 10.0452 5.60732 12.6198 5.88232 15.1719C4.36439 14.8969 2.86844 14.5448 1.4165 14.0498C1.3285 14.0278 1.26232 14.0383 1.17432 14.0273C0.965386 13.1586 0.833539 12.2678 0.833496 11.333C0.833496 10.409 0.965313 9.50645 1.17432 8.64844C1.26232 8.63744 1.3285 8.63723 1.4165 8.61523C2.87944 8.13126 4.36439 7.76816 5.88232 7.49316ZM17.7847 7.49316C19.2916 7.76815 20.7986 8.12028 22.2505 8.61523C22.3385 8.63723 22.4047 8.64843 22.4927 8.64844C22.7017 9.51745 22.8335 10.409 22.8335 11.333C22.8335 12.2678 22.7016 13.1585 22.4927 14.0273C22.4047 14.0383 22.3385 14.0278 22.2505 14.0498C20.7876 14.5338 19.2916 14.8969 17.7847 15.1719C18.0707 12.6198 18.0707 10.0452 17.7847 7.49316ZM6.93799 1.49902C6.97099 1.49902 7.01534 1.53223 7.04834 1.53223C6.65236 2.87416 6.36625 4.23809 6.13525 5.62402C4.71637 5.84401 3.30851 6.1963 1.91162 6.61426C2.97863 4.40337 4.7491 2.58801 6.93799 1.49902ZM16.5522 1.41113C18.8292 2.50012 20.6663 4.33731 21.7554 6.61426C20.3694 6.19628 18.9722 5.85527 17.5532 5.61328C17.3222 4.19431 16.9812 2.7861 16.5522 1.41113ZM11.8335 0.332031C12.7575 0.332031 13.6601 0.463848 14.5181 0.672852C14.5291 0.760826 14.5283 0.827078 14.5503 0.915039C15.0453 2.37797 15.3974 3.87394 15.6724 5.38086C13.1205 5.09489 10.5465 5.09488 7.99463 5.38086C8.26963 3.87392 8.62172 2.36698 9.1167 0.915039C9.13869 0.827058 9.12718 0.760839 9.13818 0.672852C10.0072 0.463854 10.8985 0.332039 11.8335 0.332031Z" fill="white"/>
</svg>
