<svg width="22" height="23" viewBox="0 0 22 23" fill="none" xmlns="http://www.w3.org/2000/svg">
<path d="M21.1979 0.796311C20.9523 0.640559 20.6692 0.542648 20.3732 0.511115C20.0772 0.479582 19.7774 0.515386 19.4998 0.615403C17.8922 1.19304 14.646 2.16211 11 2.16211C7.35396 2.16211 4.10667 1.19304 2.49677 0.615403C2.219 0.515848 1.91914 0.480303 1.62314 0.511844C1.32714 0.543385 1.04393 0.641061 0.79803 0.796417C0.552125 0.951773 0.350937 1.16013 0.211885 1.40344C0.0728318 1.64675 0.000104764 1.91769 0 2.19279V8.09294C0 11.8846 1.10573 15.4615 3.11437 18.1624C5.19521 20.9618 7.99562 22.5 11 22.5C14.0044 22.5 16.8048 20.9586 18.8856 18.1624C20.8943 15.4636 22 11.8867 22 8.09506V2.19279C21.9995 1.91734 21.9261 1.64616 21.7863 1.4028C21.6466 1.15944 21.4446 0.951256 21.1979 0.796311ZM5.27083 11.2202C5.10871 11.3886 4.88079 11.4906 4.63721 11.5038C4.39364 11.5169 4.15437 11.4403 3.97203 11.2906C3.78969 11.1409 3.67923 10.9304 3.66494 10.7056C3.65065 10.4807 3.73371 10.2597 3.89583 10.0914C4.55469 9.41643 5.74979 8.96363 6.875 8.96363C8.00021 8.96363 9.19531 9.41643 9.85417 10.0914C10.0163 10.2597 10.0993 10.4807 10.0851 10.7056C10.0708 10.9304 9.9603 11.1409 9.77797 11.2906C9.68768 11.3647 9.58247 11.4217 9.46834 11.4582C9.35421 11.4948 9.23339 11.5103 9.11279 11.5038C8.86921 11.4906 8.64129 11.3886 8.47917 11.2202C8.17208 10.9028 7.4651 10.6563 6.875 10.6563C6.2849 10.6563 5.57333 10.9039 5.27083 11.2202ZM15.6395 16.2835C15.0705 16.9069 14.3609 17.4079 13.5603 17.7516C12.7597 18.0953 11.8875 18.2734 11.0046 18.2734C10.1217 18.2734 9.24944 18.0953 8.44885 17.7516C7.64827 17.4079 6.93867 16.9069 6.36969 16.2835C6.28286 16.2005 6.21534 16.102 6.17127 15.994C6.1272 15.886 6.10751 15.7709 6.11342 15.6556C6.11932 15.5403 6.1507 15.4274 6.20561 15.3237C6.26052 15.2201 6.33782 15.1279 6.43274 15.0528C6.52766 14.9777 6.63821 14.9214 6.75759 14.8872C6.87696 14.853 7.00265 14.8417 7.12692 14.8541C7.25119 14.8664 7.37142 14.902 7.48022 14.9588C7.58901 15.0156 7.68408 15.0924 7.75958 15.1843C8.15632 15.6217 8.65208 15.9734 9.21194 16.2147C9.77179 16.456 10.3821 16.581 11 16.581C11.6179 16.581 12.2282 16.456 12.7881 16.2147C13.3479 15.9734 13.8437 15.6217 14.2404 15.1843C14.3983 15.0136 14.6232 14.9078 14.8655 14.8901C15.1079 14.8724 15.348 14.9444 15.5329 15.0902C15.7178 15.2359 15.8325 15.4436 15.8516 15.6674C15.8707 15.8911 15.7928 16.1128 15.6349 16.2835H15.6395ZM18.0285 11.2911C17.9388 11.3653 17.8341 11.4224 17.7205 11.4591C17.6068 11.4959 17.4864 11.5117 17.3662 11.5055C17.2459 11.4993 17.1282 11.4713 17.0197 11.4231C16.9112 11.3748 16.814 11.3074 16.7337 11.2244C16.4267 10.9071 15.7197 10.6606 15.1296 10.6606C14.5395 10.6606 13.8279 10.9081 13.5254 11.2244C13.4448 11.3081 13.3472 11.3762 13.2381 11.425C13.129 11.4738 13.0105 11.5023 12.8895 11.5089C12.7685 11.5154 12.6472 11.4999 12.5327 11.4631C12.4182 11.4264 12.3126 11.3692 12.222 11.2948C12.1314 11.2204 12.0576 11.1303 12.0048 11.0295C11.9519 10.9288 11.9211 10.8194 11.914 10.7077C11.9069 10.5959 11.9237 10.484 11.9635 10.3782C12.0033 10.2725 12.0653 10.175 12.1458 10.0914C12.8001 9.41643 13.9952 8.96363 15.125 8.96363C16.2548 8.96363 17.4453 9.41643 18.1042 10.0914C18.185 10.1745 18.2471 10.2716 18.2871 10.3771C18.3271 10.4825 18.344 10.5943 18.337 10.7058C18.33 10.8173 18.2991 10.9265 18.2462 11.0269C18.1932 11.1274 18.1193 11.2172 18.0285 11.2911Z" fill="white"/>
</svg>
