<svg width="17" height="17" viewBox="0 0 17 17" fill="none" xmlns="http://www.w3.org/2000/svg">
<g clip-path="url(#clip0_2164_8580)">
<path d="M6.07386 1.02613C4.47522 1.58071 3.09654 2.63333 2.14035 4.02938C1.18416 5.42542 0.700854 7.0913 0.761418 8.78233C0.821982 10.4734 1.42323 12.1004 2.47684 13.4245C3.53045 14.7485 4.98089 15.6998 6.61511 16.1386C7.94002 16.4805 9.32813 16.4955 10.6601 16.1824C11.8668 15.9113 12.9823 15.3316 13.8976 14.4999C14.8502 13.6078 15.5417 12.473 15.8976 11.2174C16.2844 9.85194 16.3532 8.41605 16.0989 7.01988H8.65886V10.1061H12.9676C12.8815 10.5984 12.697 11.0682 12.4251 11.4874C12.1531 11.9067 11.7994 12.2668 11.3851 12.5461C10.859 12.8943 10.2659 13.1285 9.64387 13.2336C9.02005 13.3496 8.38018 13.3496 7.75636 13.2336C7.12406 13.103 6.52592 12.8421 6.00011 12.4674C5.1553 11.8694 4.52096 11.0198 4.18762 10.0399C3.84873 9.0416 3.84873 7.9594 4.18762 6.96112C4.4249 6.2614 4.81716 5.62429 5.33511 5.09737C5.92785 4.48331 6.67828 4.04437 7.50406 3.82872C8.32984 3.61307 9.19906 3.62904 10.0164 3.87488C10.6549 4.07078 11.2387 4.41322 11.7214 4.87488C12.2072 4.39154 12.6922 3.90696 13.1764 3.42113C13.4264 3.15988 13.6989 2.91113 13.9451 2.64363C13.2083 1.95802 12.3434 1.42451 11.4001 1.07363C9.68225 0.449863 7.80259 0.4331 6.07386 1.02613Z" fill="white"/>
<path d="M6.07372 1.02624C7.8023 0.432816 9.68196 0.449138 11.4 1.07249C12.3435 1.42576 13.2079 1.96184 13.9437 2.64999C13.6937 2.91749 13.43 3.16749 13.175 3.42749C12.69 3.91166 12.2054 4.39416 11.7212 4.87499C11.2386 4.41334 10.6547 4.0709 10.0162 3.87499C9.19919 3.6283 8.32999 3.6114 7.504 3.82617C6.678 4.04094 5.92711 4.47907 5.33372 5.09249C4.81576 5.61941 4.4235 6.25652 4.18622 6.95624L1.59497 4.94999C2.52248 3.1107 4.12841 1.70377 6.07372 1.02624Z" fill="#E33629"/>
<path d="M0.907438 6.9377C1.04661 6.24741 1.27785 5.57894 1.59494 4.9502L4.18619 6.96145C3.8473 7.95972 3.8473 9.04192 4.18619 10.0402C3.32285 10.7069 2.4591 11.3769 1.59494 12.0502C0.801376 10.4706 0.559354 8.67082 0.907438 6.9377Z" fill="#F8BD00"/>
<path d="M8.65876 7.01855H16.0988C16.3531 8.41473 16.2843 9.85062 15.8975 11.2161C15.5416 12.4717 14.8501 13.6065 13.8975 14.4986C13.0613 13.8461 12.2213 13.1986 11.385 12.5461C11.7996 12.2664 12.1535 11.9059 12.4254 11.4862C12.6973 11.0665 12.8817 10.5962 12.9675 10.1036H8.65876C8.65751 9.07606 8.65876 8.0473 8.65876 7.01855Z" fill="#587DBD"/>
<path d="M1.59375 12.05C2.45792 11.3834 3.32167 10.7134 4.185 10.04C4.51901 11.0203 5.15426 11.8699 6 12.4675C6.52744 12.8405 7.12687 13.0993 7.76 13.2275C8.38382 13.3436 9.02368 13.3436 9.6475 13.2275C10.2695 13.1224 10.8627 12.8882 11.3887 12.54C12.225 13.1925 13.065 13.84 13.9012 14.4925C12.9861 15.3247 11.8705 15.9049 10.6637 16.1763C9.33176 16.4894 7.94365 16.4744 6.61875 16.1325C5.57088 15.8528 4.59209 15.3595 3.74375 14.6838C2.84591 13.9708 2.11254 13.0724 1.59375 12.05Z" fill="#319F43"/>
</g>
<defs>
<clipPath id="clip0_2164_8580">
<rect width="16" height="16" fill="white" transform="translate(0.5 0.5)"/>
</clipPath>
</defs>
</svg>
