<svg width="18" height="16" viewBox="0 0 18 16" fill="none" xmlns="http://www.w3.org/2000/svg">
<path d="M5.47783 13.9402C5.45635 13.9402 5.42771 13.9536 5.40622 13.9536C4.01709 13.3136 2.88573 12.2536 2.19116 10.9602C2.19116 10.9402 2.20548 10.9136 2.20548 10.8936C3.07906 11.1336 3.98129 11.3136 4.87635 11.4536C5.03388 12.2936 5.22005 13.1269 5.47783 13.9402Z" fill="#430000"/>
<path d="M14.9942 10.9669C14.2853 12.2936 13.1038 13.3669 11.6646 14.0136C11.9366 13.1669 12.1658 12.3136 12.3162 11.4536C13.2184 11.3136 14.1063 11.1336 14.9799 10.8936C14.9727 10.9202 14.9942 10.9469 14.9942 10.9669Z" fill="#430000"/>
<path d="M15.0515 5.14015C14.1492 4.88682 13.2399 4.68015 12.3162 4.53348C12.1658 3.67348 11.9438 2.82015 11.6646 1.98682C13.1468 2.64682 14.3426 3.76015 15.0515 5.14015Z" fill="#430000"/>
<path d="M5.47774 2.06004C5.21996 2.87337 5.03379 3.70004 4.88342 4.54004C3.95972 4.67337 3.04317 4.88671 2.13379 5.14004C2.82836 3.80004 3.9812 2.70004 5.40613 2.04004C5.42762 2.04004 5.45626 2.06004 5.47774 2.06004Z" fill="#430000"/>
<path d="M11.0915 4.3935C9.4303 4.22016 7.75474 4.22016 6.09351 4.3935C6.27252 3.48016 6.50165 2.56683 6.82388 1.68683C6.8382 1.6335 6.83104 1.5935 6.8382 1.54016C7.40388 1.4135 7.98388 1.3335 8.59252 1.3335C9.194 1.3335 9.78116 1.4135 10.3397 1.54016C10.3468 1.5935 10.3468 1.6335 10.3612 1.68683C10.6834 2.5735 10.9125 3.48016 11.0915 4.3935Z" fill="#430000"/>
<path d="M4.7188 10.3267C3.73065 10.16 2.75682 9.94667 1.81164 9.64667C1.75435 9.63334 1.71139 9.64001 1.6541 9.63334C1.51805 9.10667 1.43213 8.56667 1.43213 8.00001C1.43213 7.44001 1.51805 6.89334 1.6541 6.37334C1.71139 6.36667 1.75435 6.36667 1.81164 6.35334C2.76398 6.06001 3.73065 5.84001 4.7188 5.67334C4.53978 7.22001 4.53978 8.78001 4.7188 10.3267Z" fill="#430000"/>
<path d="M15.753 8.00001C15.753 8.56667 15.6671 9.10667 15.531 9.63334C15.4737 9.64001 15.4308 9.63334 15.3735 9.64667C14.4211 9.94001 13.4473 10.16 12.4663 10.3267C12.6525 8.78001 12.6525 7.22001 12.4663 5.67334C13.4473 5.84001 14.4283 6.05334 15.3735 6.35334C15.4308 6.36667 15.4737 6.37334 15.531 6.37334C15.6671 6.90001 15.753 7.44001 15.753 8.00001Z" fill="#430000"/>
<path d="M11.0915 11.6064C10.9125 12.5264 10.6834 13.4331 10.3612 14.3131C10.3468 14.3664 10.3468 14.4064 10.3397 14.4598C9.78116 14.5864 9.194 14.6664 8.59252 14.6664C7.98388 14.6664 7.40388 14.5864 6.8382 14.4598C6.83104 14.4064 6.8382 14.3664 6.82388 14.3131C6.50881 13.4264 6.27252 12.5264 6.09351 11.6064C6.92412 11.6931 7.75474 11.7531 8.59252 11.7531C9.4303 11.7531 10.2681 11.6931 11.0915 11.6064Z" fill="#430000"/>
<path d="M11.2874 10.509C9.49654 10.7194 7.68889 10.7194 5.89798 10.509C5.67203 8.84165 5.67203 7.15867 5.89798 5.49128C7.68889 5.2809 9.49654 5.2809 11.2874 5.49128C11.5134 7.15867 11.5134 8.84165 11.2874 10.509Z" fill="#430000"/>
</svg>
