<svg width="57" height="59" viewBox="0 0 57 59" fill="none" xmlns="http://www.w3.org/2000/svg">
<path d="M34.279 9.7614C32.375 12.2316 32.6924 14.5757 33.089 15.4389C33.6708 13.2343 35.0944 12.2626 35.7335 12.0523C35.4955 13.6195 37.0006 15.3615 37.783 16.0366C37.1549 13.9449 37.9813 12.484 39.0391 8.56612C39.8853 5.43185 37.188 1.54943 35.7335 0C37.1879 4.8475 36.6591 6.67361 34.279 9.7614Z" fill="#B02A2A"/>
<path d="M23.1722 12.2515C23.0665 15.0936 24.4945 16.601 25.2217 16.9994C24.7986 14.6355 25.398 13.0484 25.7506 12.5504C26.5704 14.0378 28.8248 14.8081 29.8495 15.0073C27.7339 13.3804 27.767 8.96455 26.4448 6.04277C25.387 3.70535 21.3101 1.85931 19.4038 1.22847C24.3622 5.57794 23.3045 8.69893 23.1722 12.2515Z" fill="#B02A2A"/>
<path d="M17.5858 14.0113C20.0716 17.1455 22.3458 18.0176 23.1722 18.0619C20.3691 19.1509 18.1918 18.405 17.4535 17.8959C17.2155 19.7021 18.6546 21.8359 19.4038 22.677C15.966 22.1458 14.4454 18.3939 12.5943 15.0073C11.1134 12.298 6.7324 10.846 4.727 10.4586C11.3382 9.66179 14.4785 10.0934 17.5858 14.0113Z" fill="#B02A2A"/>
<path d="M11.0076 23.3742C14.9479 25.1273 17.696 24.8573 18.5774 24.5031C16.9643 26.6546 14.776 27.0597 13.8835 26.9932C14.7826 28.6401 16.9246 29.6494 17.8833 29.9482C13.6191 31.5087 11.239 28.0889 7.93343 26.5948C5.28895 25.3996 1.54261 26.3624 0 26.9932C2.02743 25.0565 7.06736 21.6212 11.0076 23.3742Z" fill="#B02A2A"/>
<path d="M12.2638 35.1609C15.2256 34.8156 17.156 33.534 17.751 32.9364C17.5395 34.902 16.1203 36.323 15.4371 36.7878C16.4156 37.5316 18.6215 37.4519 19.6022 37.3191C17.5858 40.108 13.3546 38.946 10.7101 39.0456C8.59455 39.1253 5.95007 41.4915 4.89228 42.6646C6.14841 38.9128 8.56149 35.5926 12.2638 35.1609Z" fill="#B02A2A"/>
<path d="M17.751 44.3579C19.7608 42.8705 20.5277 41.0377 20.66 40.3073C21.5062 41.9806 21.0126 43.9706 20.66 44.7563C22.0086 44.836 23.6681 43.7271 24.3292 43.1626C23.8003 46.1508 21.5525 46.8813 18.4783 48.4418C16.0189 49.6902 14.8752 53.2339 14.6107 54.8498C13.7843 48.475 15.2388 46.2172 17.751 44.3579Z" fill="#B02A2A"/>
<path d="M25.8828 50.3011C27.0199 47.9636 26.8855 45.9848 26.6762 45.2876C28.1835 46.4828 28.4281 48.1319 28.362 48.807C29.5256 48.4351 30.3894 46.8149 30.6759 46.0512C31.5023 48.1761 30.114 50.0023 28.362 52.4924C26.9604 54.4845 27.5356 57.6609 27.9984 59C25.982 56.7091 24.4614 53.2229 25.8828 50.3011Z" fill="#B02A2A"/>
<path d="M35.5682 50.7659C35.4095 47.9238 34.5986 46.6821 34.2129 46.4164C35.9583 46.9742 36.8574 48.0876 37.0888 48.5746C37.8292 47.8043 37.816 46.1508 37.7168 45.4204C39.0391 46.4828 39.1713 48.4418 38.4771 51.1975C37.9218 53.4021 39.7663 56.034 40.758 57.0743C38.2788 55.7794 35.7665 54.3185 35.5682 50.7659Z" fill="#B02A2A"/>
<path d="M43.3694 47.5121C42.2852 44.9091 41.1767 44.1919 40.758 44.1587C42.186 43.9728 43.2923 44.6346 43.6669 44.9887C44.0107 44.1388 43.5237 42.8859 43.2372 42.3658C45.0553 42.8638 45.2205 44.9887 45.7164 47.0805C46.1131 48.7539 48.0854 49.9248 49.022 50.3011C47.5896 50.456 44.4536 50.1151 43.3694 47.5121Z" fill="#B02A2A"/>
<path d="M48.2617 41.1373C46.4899 39.6233 45.3417 39.5104 44.9891 39.6432C45.8883 38.8464 47.0827 38.957 47.5675 39.112C47.5411 38.262 46.5648 37.4298 46.08 37.1199C47.8981 37.0535 48.3939 37.9499 49.7492 39.6432C50.8334 40.9979 53.0658 41.2037 54.0465 41.1373C52.8565 41.7682 50.0335 42.6513 48.2617 41.1373Z" fill="#B02A2A"/>
<path d="M50.212 33.9657C47.8584 33.0626 46.4767 33.3016 46.08 33.534C46.6882 32.3388 48.0744 31.9957 48.6914 31.9736C48.0567 30.9111 46.9064 30.4905 46.4106 30.4131C48.1295 29.3506 50.6087 31.4423 52.0962 32.1728C53.2862 32.7571 55.545 32.217 56.5257 31.8739C55.4018 32.9475 52.5656 34.8688 50.212 33.9657Z" fill="#B02A2A"/>
<path d="M49.022 22.179C46.2188 22.1524 45.0332 23.2968 44.7908 23.8723C46.4039 23.3676 47.6226 23.7948 48.0303 24.0715C46.8932 24.5496 46.4767 26.2628 46.4106 27.0597C47.6006 25.3331 51.0053 25.2003 52.9226 23.8723C54.4564 22.8098 55.2365 20.22 55.4348 19.058C53.4845 21.4153 52.5259 22.2122 49.022 22.179Z" fill="#B02A2A"/>
<path d="M43.1711 14.5093C41.0555 15.6249 40.4164 17.3868 40.3613 18.1283C41.0753 16.933 42.9066 16.5457 43.733 16.5014C43.019 17.6436 43.3474 19.6335 43.6008 20.4856C43.8652 18.1947 46.4106 17.4311 48.2286 14.8081C49.6831 12.7097 49.2754 9.10842 48.8898 7.57006C48.0964 12.4176 45.8155 13.1148 43.1711 14.5093Z" fill="#B02A2A"/>
<path d="M39.4357 30.7783C38.9597 36.1437 30.0137 31.3759 27.6557 30.7783C39.8809 40.8807 45.9189 34.3668 43.733 26.6612C41.7328 19.6102 33.9154 15.0073 27.205 18.3275C20.4947 21.6477 19.6022 28.5869 19.5361 30.9111C19.47 33.2352 20.391 41.1373 29.8495 43.9927C37.4163 46.277 42.1699 41.8678 43.6008 39.3776C41.4852 41.3365 38.1466 41.9342 34.9401 42.1334C31.7337 42.3326 27.6017 40.6393 25.8828 37.4187C24.1639 34.1981 24.3292 30.7783 25.7506 28.0225C27.172 25.2667 29.8495 23.8723 32.8576 23.8723C35.8657 23.8723 39.7994 26.8604 39.4357 30.7783Z" fill="#B02A2A"/>
</svg>
