<svg width="28" height="16" viewBox="0 0 28 16" fill="none" xmlns="http://www.w3.org/2000/svg">
<path d="M25.9259 0H2.0741C0.928606 0 0 1.0974 0 2.4511V13.5489C0 14.9026 0.928606 16 2.0741 16H25.9259C27.0714 16 28 14.9026 28 13.5489V2.4511C28 1.0974 27.0714 0 25.9259 0Z" fill="#4825C2"/>
<path d="M21.4417 4.36178H18.165C16.4689 4.32042 16.0947 5.64896 16.0947 6.70659V9.26523C16.0947 11.433 17.2392 11.6402 18.1345 11.6402H21.6034C23.3838 11.6402 23.9606 11.1608 23.9578 9.21063V6.77028C23.9571 5.05625 23.3761 4.36054 21.4417 4.36178ZM18.7341 10.0573H17.8129V6.02163H18.7341V10.0573ZM20.7347 10.0573H19.3221V6.02163H20.7347C20.961 6.0178 21.1856 6.06717 21.3956 6.16686C21.6056 6.26654 21.7968 6.41457 21.9579 6.60232C22.1191 6.79007 22.2471 7.01381 22.3344 7.26053C22.4218 7.50725 22.4668 7.77203 22.4668 8.03947C22.4668 8.30692 22.4218 8.57169 22.3344 8.81841C22.2471 9.06513 22.1191 9.28887 21.9579 9.47662C21.7968 9.66437 21.6056 9.8124 21.3956 9.91208C21.1856 10.0118 20.961 10.0611 20.7347 10.0573Z" fill="white"/>
<path d="M21.2125 8.2678C21.0995 8.19872 21.1397 8.09656 21.1908 8.02542C21.2117 7.99611 21.2352 7.96949 21.2608 7.946C21.3558 7.81584 21.4074 7.64925 21.4061 7.47737C21.4061 7.10925 21.1807 6.81104 20.9024 6.81104C20.6242 6.81104 20.3988 7.10925 20.3988 7.47737C20.3978 7.57485 20.4141 7.67148 20.4466 7.76109C20.4791 7.85069 20.527 7.93129 20.5874 7.99771L20.5902 8.00019C20.5934 8.00308 20.5986 8.00846 20.6049 8.01549C20.6322 8.0461 20.6781 8.11435 20.6336 8.18797C20.5892 8.2616 20.4096 8.35755 20.3078 8.40926C20.2749 8.4258 20.25 8.4378 20.2406 8.44152L20.2367 8.44359C20.0656 8.54161 19.9497 8.72816 19.9497 8.94241C19.9497 8.94903 19.9497 8.95523 19.9497 8.96144V9.27455H20.9735C20.9735 9.27455 21.4936 9.09214 21.6997 8.67149C21.7351 8.60779 21.5184 8.39643 21.2125 8.2678Z" fill="white"/>
<path d="M20.6042 8.09531C20.5995 8.08974 20.5946 8.08449 20.5895 8.07959C20.5944 8.08538 20.5993 8.09034 20.6042 8.09531Z" fill="white"/>
<path d="M21.1869 8.10676C21.2123 8.08302 21.2358 8.05642 21.2569 8.02734C21.2313 8.05083 21.2078 8.07745 21.1869 8.10676Z" fill="white"/>
<path d="M5.7708 5.90625C5.25536 5.90625 4.83851 6.10534 4.52025 6.50352C4.20198 6.90169 4.04285 7.40369 4.04285 8.0095C4.04285 8.61614 4.20198 9.118 4.52025 9.51507C4.83851 9.91214 5.25536 10.1112 5.7708 10.1123C6.28273 10.1123 6.69865 9.91325 7.01855 9.51507C7.33845 9.11689 7.49851 8.61504 7.49875 8.0095C7.49875 7.40286 7.33868 6.90086 7.01855 6.50352C6.69841 6.10617 6.2825 5.90708 5.7708 5.90625ZM6.79 9.29254C6.53076 9.62813 6.19126 9.79578 5.7715 9.7955C5.34496 9.7955 5.00371 9.62785 4.74775 9.29254C4.49178 8.95724 4.36345 8.52983 4.36275 8.01033C4.36275 7.48641 4.49108 7.05763 4.74775 6.72397C5.00441 6.39032 5.34566 6.22363 5.7715 6.22391C6.19453 6.22391 6.53496 6.3906 6.7928 6.72397C7.05063 7.05735 7.17896 7.48613 7.1778 8.01033C7.17826 8.52983 7.049 8.95724 6.79 9.29254Z" fill="white"/>
<path d="M10.9256 9.42459L8.63726 6.01514H8.31946V10.0401H8.63166V6.58262L10.9312 10.0401H11.2378V6.01514H10.9256V9.42459Z" fill="white"/>
<path d="M12.4677 8.13328H14.3349V7.81975H12.4677V6.32907H14.5306V6.01514H12.1467V10.0401H14.5631V9.72654H12.4677V8.13328Z" fill="white"/>
</svg>
