<svg width="32" height="32" viewBox="0 0 32 32" fill="none" xmlns="http://www.w3.org/2000/svg">
<path d="M15.92 2.94677L12.7067 10.4268H9.49335C8.96002 10.4268 8.44002 10.4668 7.93335 10.5734L9.26668 7.37343L9.32002 7.25343L9.40002 7.0401C9.44002 6.94677 9.46668 6.86677 9.50668 6.8001C11.0533 3.21343 12.7867 2.09343 15.92 2.94677Z" fill="#B02A2A"/>
<path d="M24.9732 10.787L24.9466 10.7737C24.1466 10.547 23.3332 10.427 22.5066 10.427H14.1599L17.1599 3.45368L17.1999 3.36035C17.3866 3.42702 17.5866 3.52035 17.7866 3.58702L20.7332 4.82702C22.3732 5.50702 23.5199 6.21369 24.2266 7.06702C24.3466 7.22702 24.4532 7.37368 24.5599 7.54702C24.6799 7.73368 24.7732 7.92035 24.8266 8.12035C24.8799 8.24035 24.9199 8.34702 24.9466 8.46702C25.1466 9.14702 25.1599 9.92035 24.9732 10.787Z" fill="#B02A2A"/>
<path d="M16.6934 23.5468H17.0267C17.4267 23.5468 17.76 23.1868 17.76 22.7468C17.76 22.1868 17.6 22.1068 17.2534 21.9734L16.6934 21.7734V23.5468Z" fill="#B02A2A"/>
<path d="M24.3866 12.6934C23.7866 12.5201 23.1599 12.4268 22.5066 12.4268H9.49324C8.58657 12.4268 7.73324 12.6001 6.93324 12.9468C4.61324 13.9468 2.98657 16.2534 2.98657 18.9334V21.5334C2.98657 21.8534 3.01324 22.1601 3.05324 22.4801C3.34657 26.7201 5.61324 28.9868 9.85324 29.2668C10.1599 29.3068 10.4666 29.3334 10.7999 29.3334H21.1999C26.1332 29.3334 28.7332 26.9868 28.9866 22.3201C28.9999 22.0668 29.0132 21.8001 29.0132 21.5334V18.9334C29.0132 15.9868 27.0532 13.5068 24.3866 12.6934ZM17.7066 20.6668C18.3199 20.8801 19.1466 21.3334 19.1466 22.7468C19.1466 23.9601 18.1999 24.9334 17.0266 24.9334H16.6932V25.2268C16.6932 25.6134 16.3866 25.9201 15.9999 25.9201C15.6132 25.9201 15.3066 25.6134 15.3066 25.2268V24.9334H15.1866C13.9066 24.9334 12.8532 23.8534 12.8532 22.5201C12.8532 22.1334 13.1599 21.8268 13.5466 21.8268C13.9332 21.8268 14.2399 22.1334 14.2399 22.5201C14.2399 23.0801 14.6666 23.5468 15.1866 23.5468H15.3066V21.2934L14.2932 20.9334C13.6799 20.7201 12.8532 20.2668 12.8532 18.8534C12.8532 17.6401 13.7999 16.6668 14.9732 16.6668H15.3066V16.3734C15.3066 15.9868 15.6132 15.6801 15.9999 15.6801C16.3866 15.6801 16.6932 15.9868 16.6932 16.3734V16.6668H16.8132C18.0932 16.6668 19.1466 17.7468 19.1466 19.0801C19.1466 19.4668 18.8399 19.7734 18.4532 19.7734C18.0666 19.7734 17.7599 19.4668 17.7599 19.0801C17.7599 18.5201 17.3332 18.0534 16.8132 18.0534H16.6932V20.3068L17.7066 20.6668Z" fill="#B02A2A"/>
<path d="M14.24 18.8537C14.24 19.4137 14.4 19.4937 14.7467 19.627L15.3067 19.827V18.0537H14.9733C14.56 18.0537 14.24 18.4137 14.24 18.8537Z" fill="#B02A2A"/>
</svg>
